<svg id="Layer_1" data-name="Layer 1" xmlns="http://www.w3.org/2000/svg" viewBox="0 0 121.28 130.07"><defs><style>.cls-1{fill:#fff;}</style></defs><title>PK White</title><path class="cls-1" d="M107.18,141c8.37,0,13.85-6.5,13.85-14.54S115.42,112,107.18,112s-13.86,6.25-13.86,14.49S99,141,107.18,141Z" transform="translate(-66.33 -56.35)"/><path class="cls-1" d="M139.91,66.55v56.86h5.53l15-16.15h8.75l-18,19,18.28,21.34h-8.8l-15.26-17.94h-5.49V147.6H133V56.65c-2-.19-3.94-.3-5.94-.3A60.63,60.63,0,0,0,86.81,162.41v-56h6.94v5.4c3.15-3.78,7.87-6.25,14.24-6.25,11.31,0,20.19,8.84,20.19,21s-8.88,21-20.19,21c-6.37,0-11.09-2.47-14.24-6.25v35.2a60.65,60.65,0,1,0,46.17-110Z" transform="translate(-66.33 -56.35)"/></svg>